<svg xmlns="http://www.w3.org/2000/svg" xmlns:svg="http://www.w3.org/2000/svg" id="svg33" width="1200" height="765" version="1.1" viewBox="0 0 1200 765"><metadata id="metadata39"/><g id="g45" transform="matrix(2.4201187,0,0,2.4201187,428.0606,228.14492)"><path style="fill:url(#a)" id="path2" fill="url(#a)" d="m 105,57 c 0.2,-0.3 0.4,-0.6 0.4,-1 0.8,-4.9 -15,-11.5 -35.1,-14.7 -20.1,-3.2 -37.2,-1.8 -38,3.1 -0.1,0.4 0,0.7 0.1,1.1 C 31.9,45.3 2.8,127 2.8,127 h 110 c 0,0 -6.8,-70 -7.8,-70 z"/><path style="fill:#fff;fill-opacity:.75" id="path4" fill="#fff" d="m 91,49.5 c 1.9,1.1 2.9,2.3 2.8,3.3 -0.5,3.1 -11.9,3.8 -25.6,1.7 C 54.6,52.3 43.9,48 44.4,45 c 0.2,-1 1.5,-1.8 3.6,-2.2 -7,0.3 -11.6,1.6 -12,3.8 -0.6,4.1 13.4,9.7 31.4,12.6 18,2.9 33.1,1.8 33.8,-2.2 0.4,-2.4 -3.6,-5 -10.2,-7.5 z"/><path style="fill:url(#b)" id="path6" fill="url(#b)" d="m 73.7,20.1 c 9.8,1.5 19,3.5 27.3,5.7 C 99.8,13.4 90.3,2.9 77.5,0.9 c -12.8,-2 -24.9,5 -30,16.3 8.2,0.5 17,1.4 26.2,2.9 z"/><path style="fill:url(#c)" id="path8" fill="url(#c)" d="M 73.7,20.1 C 34.9,14 2.3,16.5 0.9,25.8 c -1,6.1 11.7,13.6 31.6,19.7 -0.1,-0.4 -0.1,-0.7 -0.1,-1.1 0.8,-4.9 17.8,-6.3 38,-3.1 20.2,3.2 35.9,9.8 35.1,14.7 -0.1,0.4 -0.2,0.7 -0.4,1 20.7,0.3 35.1,-2.9 36.1,-9 1.4,-9.3 -28.8,-21.8 -67.5,-27.9 z M 48,28.7 c -1.6,-0.3 -2.8,-1.8 -2.5,-3.4 0.3,-1.6 1.8,-2.8 3.4,-2.5 1.6,0.3 2.8,1.8 2.5,3.4 -0.2,1.6 -1.8,2.7 -3.4,2.5 z m 23.9,2.8 c -2.2,-0.3 -3.7,-2.4 -3.3,-4.6 0.3,-2.2 2.4,-3.7 4.6,-3.3 2.2,0.3 3.7,2.4 3.3,4.6 -0.4,2.1 -2.5,3.6 -4.6,3.3 z m 23.5,4.7 c -1.6,-0.3 -2.8,-1.8 -2.5,-3.4 0.3,-1.6 1.8,-2.8 3.4,-2.5 1.6,0.3 2.8,1.8 2.5,3.4 -0.2,1.6 -1.8,2.8 -3.4,2.5 z"/></g><linearGradient id="a" x1="59.11" x2="59.11" y1="25.874" y2="120.832" gradientUnits="userSpaceOnUse"><stop id="stop10" offset="0" stop-color="#52FA7B" stop-opacity=".75"/><stop style="stop-color:#52fa7b;stop-opacity:.03212851" id="stop12" offset="1" stop-color="#52FA7B" stop-opacity=".25"/></linearGradient><linearGradient id="b" x1="77.87" x2="74.181" y1=".956" y2="21.874" gradientUnits="userSpaceOnUse"><stop id="stop15" offset="0" stop-color="#969BA1"/><stop id="stop17" offset=".254" stop-color="#82868B"/><stop id="stop19" offset=".5" stop-color="#76797E"/><stop id="stop21" offset=".726" stop-color="#72757A"/><stop id="stop23" offset="1" stop-color="#6B6E73"/></linearGradient><radialGradient id="c" cx="71" cy="36.883" r="69.985" fx="71.211" fy="-13.911" gradientTransform="matrix(0.989,0.148,-0.037,0.249,2.155,17.202)" gradientUnits="userSpaceOnUse"><stop id="stop26" offset=".347" stop-color="#969BA1"/><stop id="stop28" offset=".901" stop-color="#83878C"/><stop id="stop30" offset=".949" stop-color="#72757A"/></radialGradient></svg>
